<?xml version="1.0" encoding="utf-8"?>
<!-- Generator: Adobe Illustrator 16.0.3, SVG Export Plug-In . SVG Version: 6.00 Build 0)  -->
<!DOCTYPE svg PUBLIC "-//W3C//DTD SVG 1.1//EN" "http://www.w3.org/Graphics/SVG/1.1/DTD/svg11.dtd">
<svg version="1.1" id="Camada_1" xmlns="http://www.w3.org/2000/svg" xmlns:xlink="http://www.w3.org/1999/xlink" x="0px" y="0px"
	 width="22px" height="22px" viewBox="1.5 1.5 22 22" enable-background="new 1.5 1.5 22 22" xml:space="preserve">
<polygon fill="#FFFFFF" points="4.099,23 18.926,23 11.511,15.587 "/>
<path fill="#FFFFFF" d="M13.122,9.292c-0.445-0.751-0.683-1.638-0.685-2.567c0-0.854,0.237-1.648,0.62-2.357H3.782
	c-0.896,0-1.625,0.727-1.625,1.624v15.131L13.435,9.846C13.334,9.653,13.231,9.471,13.122,9.292z M8.549,10.749
	c-0.477,0.483-1.022,0.78-1.965,0.78c-1.45,0-2.623-1.194-2.623-2.668c0-1.474,1.172-2.668,2.623-2.668
	c0.722,0,1.354,0.214,1.846,0.688h0.003L7.691,7.617C7.396,7.341,7.017,7.215,6.579,7.215c-0.89,0-1.613,0.735-1.613,1.644
	c0,0.906,0.722,1.642,1.613,1.642c0.582,0,0.919-0.184,1.211-0.479c0.165-0.165,0.267-0.38,0.328-0.617H6.615v-0.94h1.344h0.196
	h1.023c0.01,0.109,0.018,0.22,0.018,0.335C9.196,9.535,9.023,10.266,8.549,10.749z M7.958,7.947L7.958,7.947
	C7.958,7.947,7.958,7.945,7.958,7.947L7.958,7.947z"/>
<path fill="#FFFFFF" d="M20.309,12.882c-0.17,0.267-0.341,0.54-0.501,0.814c-0.606,1.048-1.192,2.279-1.391,4.177
	c-0.07,0.236-0.225,0.357-0.388,0.41l2.766,2.767v-8.905c-0.075,0.107-0.16,0.223-0.23,0.326L20.309,12.882z"/>
<path fill="#FFFFFF" d="M17.883,2c-2.738,0-4.961,2.118-4.961,4.725c0.001,0.853,0.207,1.634,0.612,2.315
	c0.138,0.224,0.266,0.446,0.377,0.671c0.092,0.133,0.193,0.292,0.287,0.454c0.097,0.13,0.201,0.282,0.301,0.438
	c0.403,0.54,0.776,1.086,1.124,1.597l0.188,0.292c0.196,0.312,0.403,0.639,0.591,0.961c0.633,1.09,1.242,2.377,1.456,4.367
	c0.046,0.073,0.064,0.041,0.09-0.045c0.198-1.941,0.813-3.227,1.443-4.322c0.164-0.278,0.338-0.558,0.509-0.829l0.262-0.416
	c0.36-0.529,0.731-1.07,1.139-1.62c0.096-0.146,0.199-0.296,0.31-0.447c0.079-0.138,0.184-0.297,0.287-0.456
	c0.096-0.199,0.226-0.422,0.366-0.647c0.382-0.652,0.58-1.431,0.58-2.313C22.841,4.118,20.617,2,17.883,2z M17.883,8.449
	c-0.999,0-1.81-0.773-1.81-1.726c0-0.955,0.813-1.727,1.81-1.727s1.805,0.772,1.805,1.727C19.691,7.676,18.881,8.449,17.883,8.449z"
	/>
<path fill="#FFFFFF" d="M15.982,13.692c-0.184-0.313-0.386-0.635-0.579-0.943l-0.184-0.286c-0.073-0.109-0.165-0.231-0.242-0.344
	l-1.56,1.562l3.91,3.907C17.103,15.867,16.558,14.686,15.982,13.692z"/>
</svg>
