<?xml version="1.0" encoding="utf-8"?>
<!-- Generator: Adobe Illustrator 16.0.3, SVG Export Plug-In . SVG Version: 6.00 Build 0)  -->
<!DOCTYPE svg PUBLIC "-//W3C//DTD SVG 1.1//EN" "http://www.w3.org/Graphics/SVG/1.1/DTD/svg11.dtd">
<svg version="1.1" id="Layer_1" xmlns="http://www.w3.org/2000/svg" xmlns:xlink="http://www.w3.org/1999/xlink" x="0px" y="0px"
	 width="480.586px" height="249.338px" viewBox="0 0 480.586 249.338" enable-background="new 0 0 480.586 249.338"
	 xml:space="preserve">
<g>
	<g>
		<g>
			<g>
				<path fill="#F7F7F7" d="M288.352,138.324v29.083l104.984-17.379c9.575,10.284,52.492,5.319,52.492-17.025
					c0-28.019-89.378,8.867-89.378-52.491c0-4.256,0.354-8.513,1.063-12.769l-69.161,11.35v26.246l45.753-7.094v32.984
					L288.352,138.324z"/>
			</g>
		</g>
	</g>
	<g>
		<g>
			<g>
				<polygon fill="#F7F7F7" points="177.693,124.137 223.8,116.688 223.8,149.673 177.693,157.121 177.693,219.189 249.692,206.421 
					249.692,85.832 177.693,97.891 				"/>
			</g>
		</g>
	</g>
	<g>
		<g>
			<g>
				<path fill="#F7F7F7" d="M96.117,231.603v1.773l42.561-7.447v-80.512h-2.128C135.841,194.363,122.718,219.545,96.117,231.603z"/>
			</g>
		</g>
	</g>
	<g>
		<g>
			<g>
				<path fill="#F7F7F7" d="M445.473,61.359c-2.129-21.28-50.718-12.414-50.718,7.448c0,23.764,64.197,0.709,84.058,31.566h1.773
					V56.039h-1.773L445.473,61.359z"/>
			</g>
		</g>
	</g>
	<g>
		<g>
			<g>
				<path fill="#F7F7F7" d="M0,0v94.344l40.078-6.771v69.195c0,37.239,6.03,53.91,29.438,50.363
					c23.409-3.548,28.729-23.055,28.729-59.586V77.746l264.943-44.761V49.3h1.773c10.285-16.315,29.793-26.6,56.748-30.856
					c27.31-4.611,50.365,3.192,57.458,24.827h1.418V0H0z"/>
			</g>
		</g>
	</g>
	<path fill="#F7F7F7" d="M422.42,185.851c-20.573,3.191-42.562,1.418-56.75-7.449h-1.773v70.937h116.689v-97.892h-1.418
		C469.236,171.663,446.893,181.949,422.42,185.851z"/>
</g>
</svg>
