<?xml version="1.0" encoding="utf-8"?>
<!-- Generator: Adobe Illustrator 16.0.3, SVG Export Plug-In . SVG Version: 6.00 Build 0)  -->
<!DOCTYPE svg PUBLIC "-//W3C//DTD SVG 1.1//EN" "http://www.w3.org/Graphics/SVG/1.1/DTD/svg11.dtd">
<svg version="1.1" id="Camada_1" xmlns="http://www.w3.org/2000/svg" xmlns:xlink="http://www.w3.org/1999/xlink" x="0px" y="0px"
	 width="22px" height="22px" viewBox="1.5 1.5 22 22" enable-background="new 1.5 1.5 22 22" xml:space="preserve">
<path fill="#FFFFFF" d="M12.5,2c-4.637,0-8.394,3.762-8.394,8.4C4.106,16.701,12.5,23,12.5,23s8.394-6.299,8.394-12.6
	C20.894,5.762,17.14,2,12.5,2z M9.05,10.377c-0.411,0-0.749-0.335-0.749-0.749c0-0.413,0.338-0.748,0.748-0.748
	c0.414,0,0.75,0.335,0.75,0.748C9.8,10.041,9.463,10.377,9.05,10.377z M15.175,11.908c-0.044,0.037-1.006,0.882-2.56,0.882
	c-1.549,0-2.661-0.913-2.707-0.95c-0.161-0.136-0.186-0.376-0.051-0.54c0.135-0.163,0.377-0.185,0.54-0.05
	c0.018,0.013,0.957,0.775,2.218,0.775c1.265,0,2.036-0.682,2.043-0.687c0.16-0.142,0.403-0.128,0.541,0.031
	C15.342,11.525,15.33,11.768,15.175,11.908z M16.018,10.377c-0.411,0-0.75-0.335-0.75-0.749c0-0.413,0.341-0.748,0.75-0.748
	c0.418,0,0.749,0.335,0.749,0.748C16.767,10.041,16.436,10.377,16.018,10.377z"/>
</svg>
